<svg xmlns="http://www.w3.org/2000/svg" width="1440" height="1024" viewBox="0 0 1440 1024">
  <defs>
    <style>
      .label{font:14px Segoe UI,Inter,Arial,sans-serif;fill:#111}
      .title{font:bold 18px Segoe UI,Inter,Arial,sans-serif;fill:#111}
      .stroke{fill:#fff;stroke:#111;stroke-width:2;stroke-linecap:round;stroke-linejoin:round}
      .muted{fill:#f5f5f5}
    </style>
  </defs>
  <rect x="0" y="0" width="1440" height="1024" class="muted"/>
  <!-- Browser chrome (Windows style) -->
  <rect x="16" y="16" rx="6" ry="6" width="1408" height="56" class="stroke" fill="#e6e6e6"/>
  <rect x="32" y="28" rx="6" ry="6" width="1100" height="32" class="stroke" fill="#fff"/>
  <g transform="translate(1270,20)">
    <rect x="0" y="0" width="40" height="40" class="stroke" fill="#fff"/>
    <rect x="44" y="0" width="40" height="40" class="stroke" fill="#fff"/>
    <rect x="88" y="0" width="40" height="40" class="stroke" fill="#fff"/>
    <line x1="12" y1="20" x2="28" y2="20" stroke="#111" stroke-width="2"/>
    <rect x="56" y="10" width="16" height="16" stroke="#111" fill="none"/>
    <line x1="100" y1="12" x2="116" y2="28" stroke="#111" stroke-width="2"/>
    <line x1="116" y1="12" x2="100" y2="28" stroke="#111" stroke-width="2"/>
  </g>
  <text x="32" y="108" class="title">Audit Log</text>

  <rect x="32" y="132" rx="8" ry="8" width="140" height="40" class="stroke" fill="#fff0f0"/>
  <text x="44" y="158" class="label">Clear log</text>

  <rect x="32" y="188" rx="10" ry="10" width="1308" height="740" class="stroke"/>
  <text x="44" y="218" class="label">Time | Actor | Action | Details</text>
  <line x1="32" y1="244" x2="1340" y2="244" stroke="#111" stroke-width="2" stroke-dasharray="6 6"/>
</svg>


