<svg xmlns="http://www.w3.org/2000/svg" width="1440" height="1024" viewBox="0 0 1440 1024">
  <defs>
    <style>
      .label{font:14px Segoe UI,Inter,Arial,sans-serif;fill:#111}
      .title{font:bold 18px Segoe UI,Inter,Arial,sans-serif;fill:#111}
      .stroke{fill:#fff;stroke:#111;stroke-width:2;stroke-linecap:round;stroke-linejoin:round}
      .muted{fill:#f5f5f5}
    </style>
    <filter id="sketch" x="-5%" y="-5%" width="110%" height="110%">
      <feTurbulence type="fractalNoise" baseFrequency="0.9" numOctaves="2" result="noise"/>
      <feDisplacementMap in="SourceGraphic" in2="noise" scale="1.5" xChannelSelector="R" yChannelSelector="G"/>
    </filter>
  </defs>
  <rect x="0" y="0" width="1440" height="1024" class="muted"/>
  <!-- Browser chrome (Windows style) -->
  <rect x="16" y="16" rx="6" ry="6" width="1408" height="56" class="stroke" fill="#e6e6e6" filter="url(#sketch)"/>
  <rect x="32" y="28" rx="6" ry="6" width="1100" height="32" class="stroke" fill="#fff" filter="url(#sketch)"/>
  <g transform="translate(1270,20)" filter="url(#sketch)">
    <rect x="0" y="0" width="40" height="40" class="stroke" fill="#fff"/>
    <rect x="44" y="0" width="40" height="40" class="stroke" fill="#fff"/>
    <rect x="88" y="0" width="40" height="40" class="stroke" fill="#fff"/>
    <line x1="12" y1="20" x2="28" y2="20" stroke="#111" stroke-width="2"/>
    <rect x="56" y="10" width="16" height="16" stroke="#111" fill="none"/>
    <line x1="100" y1="12" x2="116" y2="28" stroke="#111" stroke-width="2"/>
    <line x1="116" y1="12" x2="100" y2="28" stroke="#111" stroke-width="2"/>
  </g>
  <text x="32" y="108" class="title">Import / Export</text>

  <!-- Dropzone -->
  <rect x="32" y="132" rx="10" ry="10" width="1308" height="220" class="stroke" filter="url(#sketch)"/>
  <text x="48" y="112" class="label">Drag & drop Excel file (.xlsx)</text>
  <text x="48" y="140" class="label">Validates required columns and types</text>

  <!-- Actions -->
  <rect x="32" y="372" rx="8" ry="8" width="220" height="44" class="stroke" fill="#f0f7ff" filter="url(#sketch)"/>
  <text x="46" y="340" class="label">Download template</text>
  <rect x="264" y="372" rx="8" ry="8" width="200" height="44" class="stroke" filter="url(#sketch)"/>
  <text x="278" y="340" class="label">Export current data</text>

  <!-- Log output -->
  <rect x="32" y="436" rx="10" ry="10" width="1308" height="476" class="stroke" filter="url(#sketch)"/>
  <text x="48" y="466" class="label">Import summary: created/updated/skipped</text>

  <!-- Note -->
  <g transform="translate(1100,360) rotate(2)">
    <rect x="0" y="0" width="240" height="80" rx="6" ry="6" fill="#fff6c2" stroke="#c9b65a" stroke-width="2"/>
    <polygon points="220,0 240,0 240,20" fill="#f7d37b"/>
    <text x="12" y="28" class="label">Note: Upsert preserves IDs</text>
    <text x="12" y="50" class="label">and reports skipped rows</text>
  </g>
</svg>


