<svg xmlns="http://www.w3.org/2000/svg" width="1440" height="1024" viewBox="0 0 1440 1024">
  <defs>
    <style>
      .label{font:14px Segoe UI,Inter,Arial,sans-serif;fill:#111}
      .title{font:bold 18px Segoe UI,Inter,Arial,sans-serif;fill:#111}
      .stroke{fill:#fff;stroke:#111;stroke-width:2;stroke-linecap:round;stroke-linejoin:round}
      .muted{fill:#f5f5f5}
    </style>
    <filter id="sketch" x="-5%" y="-5%" width="110%" height="110%">
      <feTurbulence type="fractalNoise" baseFrequency="0.9" numOctaves="2" result="noise"/>
      <feDisplacementMap in="SourceGraphic" in2="noise" scale="1.5" xChannelSelector="R" yChannelSelector="G"/>
    </filter>
  </defs>
  <rect x="0" y="0" width="1440" height="1024" class="muted"/>
  <!-- Browser chrome (Windows style) -->
  <rect x="16" y="16" rx="6" ry="6" width="1408" height="56" class="stroke" fill="#e6e6e6" filter="url(#sketch)"/>
  <rect x="32" y="28" rx="6" ry="6" width="1100" height="32" class="stroke" fill="#fff" filter="url(#sketch)"/>
  <g transform="translate(1270,20)" filter="url(#sketch)">
    <rect x="0" y="0" width="40" height="40" class="stroke" fill="#fff"/>
    <rect x="44" y="0" width="40" height="40" class="stroke" fill="#fff"/>
    <rect x="88" y="0" width="40" height="40" class="stroke" fill="#fff"/>
    <line x1="12" y1="20" x2="28" y2="20" stroke="#111" stroke-width="2"/>
    <rect x="56" y="10" width="16" height="16" stroke="#111" fill="none"/>
    <line x1="100" y1="12" x2="116" y2="28" stroke="#111" stroke-width="2"/>
    <line x1="116" y1="12" x2="100" y2="28" stroke="#111" stroke-width="2"/>
  </g>
  <text x="32" y="108" class="title">Reports</text>

  <rect x="32" y="132" rx="8" ry="8" width="220" height="44" class="stroke" filter="url(#sketch)"/>
  <text x="44" y="100" class="label">Month picker</text>
  <rect x="264" y="132" rx="8" ry="8" width="200" height="44" class="stroke" fill="#e8f7e9" filter="url(#sketch)"/>
  <text x="276" y="160" class="label">Generate report</text>

  <rect x="32" y="196" rx="10" ry="10" width="1308" height="720" class="stroke" filter="url(#sketch)"/>
  <text x="44" y="226" class="label">Report preview — Headers:</text>
  <text x="44" y="252" class="label">Snack name | Date of purchase | Expiry date | Purchase qty | Current remaining | Stock type | Purchased by | Report date</text>
</svg>


